<?xml version="1.0" encoding="UTF-8" standalone="no"?>
<svg width="40px" height="40px" viewBox="0 0 40 40" version="1.1" xmlns="http://www.w3.org/2000/svg" xmlns:xlink="http://www.w3.org/1999/xlink" xmlns:sketch="http://www.bohemiancoding.com/sketch/ns">
    <!-- Generator: Sketch 3.3.2 (12043) - http://www.bohemiancoding.com/sketch -->
    <title>icon/github</title>
    <desc>Created with Sketch.</desc>
    <defs></defs>
    <g id="Top" stroke="none" stroke-width="1" fill="none" fill-rule="evenodd" sketch:type="MSPage">
        <g id="Desktop-HD" sketch:type="MSArtboardGroup" transform="translate(-700.000000, -435.000000)">
            <g id="Links" sketch:type="MSLayerGroup" transform="translate(700.000000, 435.000000)">
                <g id="icon/github" sketch:type="MSShapeGroup">
                    <circle id="Oval-3-Copy-2" fill="#FFFFFF" cx="20" cy="20" r="20"></circle>
                    <g id="Group" transform="translate(8.000000, 10.000000)" fill="#000000">
                        <path d="M22.0064118,6.34396639 C22.2652941,5.56731933 22.3948235,4.7622605 22.3948235,3.92843697 C22.3948235,2.8164958 22.1500588,1.77161345 21.6614118,0.793966387 C20.6359412,0.793966387 19.7302941,0.98102521 18.9441176,1.35478992 C18.1582941,1.72855462 17.2621765,2.30843697 16.2559412,3.09443697 C14.9908235,2.78773109 13.6485882,2.63437815 12.2301176,2.63437815 C10.6773529,2.63437815 9.19641176,2.80220168 7.78747059,3.13767227 C6.762,2.33243697 5.85617647,1.74073109 5.07017647,1.36202521 C4.28417647,0.983319328 3.37358824,0.793966387 2.33841176,0.793966387 C1.84958824,1.77161345 1.60517647,2.8164958 1.60517647,3.92843697 C1.60517647,4.77196639 1.73452941,5.58673109 1.99341176,6.37255462 C0.689647059,7.89673109 0.0379411765,9.7944958 0.0379411765,12.0662017 C0.0379411765,14.0601429 0.334941176,15.6462605 0.929294118,16.825437 C1.24570588,17.4482017 1.65776471,17.9993193 2.16582353,18.4787899 C2.67370588,18.9579076 3.25358824,19.3463193 3.90547059,19.6434958 C4.55735294,19.9404958 5.21382353,20.1873782 5.87523529,20.3837899 C6.53664706,20.5802017 7.26741176,20.7240252 8.06788235,20.8149076 C8.86817647,20.9063193 9.57511765,20.9659664 10.1885294,20.9949076 C10.8019412,21.0234958 11.4824118,21.0379664 12.2301176,21.0379664 C13.1119412,21.0379664 13.9120588,21.0162605 14.6311765,20.9733782 C15.3502941,20.9303193 16.1719412,20.8246134 17.097,20.6571429 C18.0218824,20.4893193 18.8366471,20.2616723 19.5412941,19.9742017 C20.2457647,19.6865546 20.9216471,19.2744958 21.5685882,18.7376723 C22.2155294,18.2006723 22.7211176,17.5636134 23.0855294,16.825437 C23.67,15.6367311 23.9624118,14.0502605 23.9624118,12.0662017 C23.9620588,9.78496639 23.3103529,7.8774958 22.0064118,6.34396639 L22.0064118,6.34396639 Z M20.2817647,16.8035546 C19.9750588,17.431437 19.5866471,17.9248487 19.1170588,18.2844958 C18.6472941,18.6439664 18.0626471,18.931437 17.3631176,19.147437 C16.6630588,19.3629076 15.9924706,19.5042605 15.3502941,19.5713193 C14.7077647,19.6383782 13.9939412,19.6719076 13.2077647,19.6719076 L10.7922353,19.6719076 C10.0062353,19.6719076 9.29205882,19.6383782 8.64988235,19.5713193 C8.00770588,19.5042605 7.33676471,19.3629076 6.63705882,19.147437 C5.93752941,18.931437 5.35288235,18.6441429 4.88311765,18.2844958 C4.41335294,17.9248487 4.02511765,17.431437 3.71841176,16.8035546 C3.41170588,16.1754958 3.25835294,15.4399664 3.25835294,14.5966134 C3.25835294,13.4462017 3.58905882,12.4683782 4.25047059,11.6634958 C4.91188235,10.8582605 5.808,10.4557311 6.939,10.4557311 C7.35123529,10.4557311 8.28582353,10.5563193 9.74276471,10.7576723 C10.4232353,10.8630252 11.1757059,10.9157899 12,10.9157899 C12.8244706,10.9157899 13.5769412,10.8632017 14.2572353,10.7576723 C15.7335882,10.5563193 16.6678235,10.4557311 17.0611765,10.4557311 C18.192,10.4557311 19.0881176,10.858437 19.7495294,11.6634958 C20.4109412,12.4685546 20.7414706,13.4462017 20.7414706,14.5966134 C20.7414706,15.4401429 20.5881176,16.1760252 20.2817647,16.8035546 L20.2817647,16.8035546 Z" id="Shape"></path>
                        <path d="M8.44147059,12.3249076 C8.14905882,11.9987899 7.80176471,11.8359076 7.39905882,11.8359076 C6.99635294,11.8359076 6.64888235,11.9989664 6.35664706,12.3249076 C6.06441176,12.6506723 5.85829412,13.0149076 5.73847059,13.4172605 C5.61847059,13.8199664 5.55864706,14.2129664 5.55864706,14.5966134 C5.55864706,14.9799076 5.61864706,15.3729076 5.73847059,15.7756134 C5.85811765,16.1781429 6.06423529,16.5422017 6.35664706,16.8679664 C6.64905882,17.194084 6.99635294,17.3569664 7.39905882,17.3569664 C7.80176471,17.3569664 8.14923529,17.1937311 8.44147059,16.8679664 C8.73370588,16.5422017 8.93982353,16.1781429 9.05964706,15.7756134 C9.17947059,15.3729076 9.23947059,14.9799076 9.23947059,14.5966134 C9.23947059,14.2133193 9.17964706,13.8201429 9.05964706,13.4172605 C8.93982353,13.015084 8.73388235,12.6508487 8.44147059,12.3249076 L8.44147059,12.3249076 Z" id="Shape"></path>
                        <path d="M17.6433529,12.3249076 C17.3511176,11.9987899 17.0036471,11.8359076 16.6011176,11.8359076 C16.1985882,11.8359076 15.8511176,11.9989664 15.5585294,12.3249076 C15.2662941,12.6506723 15.0601765,13.0149076 14.9405294,13.4172605 C14.8205294,13.8199664 14.7605294,14.2129664 14.7605294,14.5966134 C14.7605294,14.9799076 14.8205294,15.3729076 14.9405294,15.7756134 C15.0601765,16.1781429 15.2662941,16.5422017 15.5585294,16.8679664 C15.8511176,17.194084 16.1985882,17.3569664 16.6011176,17.3569664 C17.0036471,17.3569664 17.3511176,17.1937311 17.6433529,16.8679664 C17.9354118,16.5422017 18.1415294,16.1781429 18.2617059,15.7756134 C18.3813529,15.3729076 18.4413529,14.9799076 18.4413529,14.5966134 C18.4413529,14.2133193 18.3813529,13.8201429 18.2617059,13.4172605 C18.1415294,13.015084 17.9354118,12.6508487 17.6433529,12.3249076 L17.6433529,12.3249076 Z" id="Shape"></path>
                    </g>
                </g>
            </g>
        </g>
    </g>
</svg>