<?xml version="1.0" encoding="UTF-8" standalone="no"?>
<svg width="40px" height="40px" viewBox="0 0 40 40" version="1.1" xmlns="http://www.w3.org/2000/svg" xmlns:xlink="http://www.w3.org/1999/xlink" xmlns:sketch="http://www.bohemiancoding.com/sketch/ns">
    <!-- Generator: Sketch 3.3.2 (12043) - http://www.bohemiancoding.com/sketch -->
    <title>icon/twitter</title>
    <desc>Created with Sketch.</desc>
    <defs></defs>
    <g id="Top" stroke="none" stroke-width="1" fill="none" fill-rule="evenodd" sketch:type="MSPage">
        <g id="Desktop-HD" sketch:type="MSArtboardGroup" transform="translate(-753.000000, -435.000000)">
            <g id="SNS" sketch:type="MSLayerGroup" transform="translate(700.000000, 435.000000)">
                <g id="icon/twitter" transform="translate(53.000000, 0.000000)" sketch:type="MSShapeGroup">
                    <circle id="Oval-3" fill="#FFFFFF" cx="20" cy="20" r="20"></circle>
                    <g id="twitter16" transform="translate(8.800000, 11.200000)" fill="#1B1B1B">
                        <path d="M23.8524923,2.44449231 C22.92,2.84566154 21.9871385,3.09618462 21.0550154,3.1968 C22.1078769,2.56504615 22.8199385,1.67261538 23.1910154,0.519507692 C22.2280615,1.09089231 21.2003077,1.48190769 20.1073846,1.69255385 C19.1446154,0.669784615 17.9616,0.158215385 16.5576,0.158215385 C15.2139692,0.158215385 14.0684308,0.631938462 13.1206154,1.57956923 C12.1729846,2.5272 11.6992615,3.67273846 11.6992615,5.01636923 C11.6992615,5.37729231 11.7393231,5.74836923 11.8196308,6.12941538 C9.83409231,6.02916923 7.97150769,5.53033846 6.23169231,4.63292308 C4.49187692,3.73532308 3.01532308,2.53956923 1.80203077,1.04547692 C1.3608,1.79741538 1.14018462,2.61470769 1.14018462,3.49716923 C1.14018462,4.32941538 1.33569231,5.10166154 1.72689231,5.81353846 C2.11790769,6.52541538 2.64443077,7.10196923 3.30627692,7.5432 C2.52406154,7.51310769 1.79206154,7.30744615 1.11027692,6.9264 L1.11027692,6.98658462 C1.11027692,8.15981538 1.47876923,9.18996923 2.21575385,10.0776 C2.95273846,10.9652308 3.88283077,11.5240615 5.00584615,11.7546462 C4.58473846,11.8648615 4.15846154,11.9200615 3.72738462,11.9200615 C3.44658462,11.9200615 3.14067692,11.8949538 2.80984615,11.8451077 C3.12073846,12.8176615 3.69230769,13.6172308 4.52455385,14.244 C5.3568,14.8709538 6.29944615,15.1940308 7.35230769,15.2143385 C5.58756923,16.5978462 3.57710769,17.2897846 1.32092308,17.2897846 C0.889661538,17.2897846 0.498646154,17.2700308 0.147692308,17.2297846 C2.40387692,18.6836308 4.89064615,19.4104615 7.60818462,19.4104615 C9.33286154,19.4104615 10.9523077,19.1374154 12.4661538,18.5909538 C13.9805538,18.0444923 15.2739692,17.3124923 16.3469538,16.3947692 C17.4197538,15.4774154 18.3448615,14.4219692 19.1219077,13.2286154 C19.8989538,12.0354462 20.4779077,10.7896615 20.8591385,9.49107692 C21.2401846,8.19230769 21.4307077,6.89150769 21.4307077,5.58775385 C21.4307077,5.30695385 21.4257231,5.09649231 21.4155692,4.956 C22.3683692,4.26443077 23.1806769,3.42701538 23.8524923,2.44449231 L23.8524923,2.44449231 Z" id="Shape"></path>
                    </g>
                </g>
            </g>
        </g>
    </g>
</svg>