<?xml version="1.0" encoding="UTF-8" standalone="no"?>
<svg width="40px" height="40px" viewBox="0 0 40 40" version="1.1" xmlns="http://www.w3.org/2000/svg" xmlns:xlink="http://www.w3.org/1999/xlink" xmlns:sketch="http://www.bohemiancoding.com/sketch/ns">
    <!-- Generator: Sketch 3.3.2 (12043) - http://www.bohemiancoding.com/sketch -->
    <title>icon/facebook</title>
    <desc>Created with Sketch.</desc>
    <defs></defs>
    <g id="Top" stroke="none" stroke-width="1" fill="none" fill-rule="evenodd" sketch:type="MSPage">
        <g id="Desktop-HD" sketch:type="MSArtboardGroup" transform="translate(-806.000000, -435.000000)">
            <g id="SNS" sketch:type="MSLayerGroup" transform="translate(700.000000, 435.000000)">
                <g id="icon/facebook" transform="translate(106.000000, 0.000000)" sketch:type="MSShapeGroup">
                    <circle id="Oval-3-Copy" fill="#FFFFFF" cx="20" cy="20" r="20"></circle>
                    <g id="facebook25" transform="translate(13.600000, 8.000000)" fill="#1B1B1B">
                        <path d="M7.71123103,8.22286317 L7.71123103,6.21238164 C7.71123103,5.91052268 7.72513357,5.67678617 7.75346001,5.51169347 C7.78161266,5.34625321 7.84556435,5.18359345 7.94479376,5.02301908 C8.04384938,4.86261848 8.20442375,4.7517457 8.42616931,4.69040073 C8.64808866,4.62888198 8.94317014,4.59829638 9.31141375,4.59829638 L11.3217215,4.59829638 L11.3217215,0.577333333 L8.10780107,0.577333333 C6.24798836,0.577333333 4.91247531,1.0185653 4.10074057,1.90102923 C3.28900583,2.78366693 2.88322535,4.0837285 2.88322535,5.80173528 L2.88322535,8.22286317 L0.476,8.22286317 L0.476,12.244 L2.88305157,12.244 L2.88305157,23.9106667 L7.71123103,23.9106667 L7.71123103,12.244 L10.9251514,12.244 L11.3498741,8.22286317 L7.71123103,8.22286317 L7.71123103,8.22286317 Z" id="Shape"></path>
                    </g>
                </g>
            </g>
        </g>
    </g>
</svg>