<?xml version="1.0" encoding="UTF-8" standalone="no"?>
<svg width="40px" height="39px" viewBox="0 0 40 39" version="1.1" xmlns="http://www.w3.org/2000/svg" xmlns:xlink="http://www.w3.org/1999/xlink" xmlns:sketch="http://www.bohemiancoding.com/sketch/ns">
    <!-- Generator: Sketch 3.3.2 (12043) - http://www.bohemiancoding.com/sketch -->
    <title>icon/github</title>
    <desc>Created with Sketch.</desc>
    <defs></defs>
    <g id="Top" stroke="none" stroke-width="1" fill="none" fill-rule="evenodd" sketch:type="MSPage">
        <g id="Desktop-HD" sketch:type="MSArtboardGroup" transform="translate(-700.000000, -435.000000)" fill="#FFFFFF">
            <g id="SNS" sketch:type="MSLayerGroup" transform="translate(700.000000, 435.000000)">
                <g id="icon/github" sketch:type="MSShapeGroup">
                    <path d="M37.1993651,10.1974603 C35.4231746,7.15396825 33.0136508,4.74444444 29.9704762,2.96825397 C26.9266667,1.19206349 23.6038095,0.304126984 19.9996825,0.304126984 C16.395873,0.304126984 13.0720635,1.19238095 10.0288889,2.96825397 C6.98539683,4.74444444 4.57587302,7.15396825 2.79968254,10.1974603 C1.02349206,13.2409524 0.135555556,16.5644444 0.135555556,20.1679365 C0.135555556,24.4961905 1.3984127,28.3885714 3.9247619,31.8457143 C6.45079365,35.3028571 9.71396825,37.6952381 13.7142857,39.0228571 C14.18,39.1092063 14.5247619,39.0485714 14.7488889,38.8422222 C14.9730159,38.6352381 15.0850794,38.3765079 15.0850794,38.0663492 C15.0850794,38.0146032 15.0806349,37.5492063 15.0720635,36.6698413 C15.0631746,35.7901587 15.0590476,35.0228571 15.0590476,34.368254 L14.464127,34.4711111 C14.0847619,34.5406349 13.6063492,34.5701587 13.0285714,34.5615873 C12.4511111,34.5536508 11.851746,34.4930159 11.2311111,34.3806349 C10.6101587,34.2688889 10.0326984,34.0104762 9.49809524,33.6053968 C8.96380952,33.2 8.58444444,32.6695238 8.36031746,32.0146032 L8.1015873,31.4193651 C7.92920635,31.0231746 7.65777778,30.5831746 7.28698413,30.1006349 C6.91619048,29.6177778 6.54126984,29.2901587 6.16190476,29.1177778 L5.98095238,28.9885714 C5.86031746,28.9022222 5.74825397,28.7984127 5.6447619,28.6777778 C5.54126984,28.5571429 5.46380952,28.4365079 5.41206349,28.3155556 C5.36031746,28.1949206 5.4031746,28.0955556 5.54126984,28.0177778 C5.67936508,27.94 5.92920635,27.9019048 6.29142857,27.9019048 L6.80857143,27.9793651 C7.15333333,28.048254 7.58,28.2549206 8.08888889,28.6 C8.59746032,28.9447619 9.01555556,29.3930159 9.3431746,29.9444444 C9.74,30.651746 10.2180952,31.1904762 10.7787302,31.5612698 C11.3390476,31.9320635 11.9038095,32.1171429 12.4726984,32.1171429 C13.0415873,32.1171429 13.5330159,32.0739683 13.9469841,31.9879365 C14.3606349,31.9019048 14.7485714,31.772381 15.1107937,31.6 C15.2660317,30.4444444 15.6885714,29.5565079 16.3780952,28.935873 C15.3952381,28.832381 14.511746,28.6768254 13.7269841,28.4701587 C12.9425397,28.2631746 12.1320635,27.9269841 11.295873,27.4609524 C10.4593651,26.9955556 9.76539683,26.4177778 9.21365079,25.728254 C8.66190476,25.0384127 8.20920635,24.1330159 7.85587302,23.012381 C7.50253968,21.8914286 7.32571429,20.5984127 7.32571429,19.1326984 C7.32571429,17.0460317 8.00698413,15.2701587 9.36920635,13.8044444 C8.73111111,12.2355556 8.79142857,10.4768254 9.55015873,8.52825397 C10.0501587,8.37301587 10.791746,8.48952381 11.7746032,8.87746032 C12.7574603,9.26539683 13.4771429,9.59777778 13.9342857,9.87333333 C14.3914286,10.1488889 14.7577778,10.3822222 15.0336508,10.571746 C16.6374603,10.1234921 18.2926984,9.89936508 19.9996825,9.89936508 C21.7066667,9.89936508 23.3622222,10.1234921 24.9663492,10.571746 L25.9492063,9.95111111 C26.6212698,9.53714286 27.4149206,9.15777778 28.328254,8.81301587 C29.2422222,8.46825397 29.9409524,8.37333333 30.4238095,8.52857143 C31.1996825,10.4771429 31.2685714,12.235873 30.6304762,13.8047619 C31.9926984,15.2704762 32.6739683,17.0466667 32.6739683,19.1330159 C32.6739683,20.5987302 32.4968254,21.895873 32.1438095,23.0253968 C31.7901587,24.1552381 31.3336508,25.06 30.7733333,25.7412698 C30.2126984,26.4225397 29.5142857,26.995873 28.6780952,27.4612698 C27.8415873,27.9269841 27.0311111,28.2631746 26.2466667,28.4701587 C25.4619048,28.6771429 24.5784127,28.8326984 23.5955556,28.9361905 C24.4920635,29.7120635 24.9403175,30.9361905 24.9403175,32.6088889 L24.9403175,38.0657143 C24.9403175,38.375873 25.048254,38.6346032 25.2638095,38.8412698 C25.4793651,39.0479365 25.8196825,39.1085714 26.2853968,39.0222222 C30.2860317,37.6946032 33.5492063,35.3022222 36.0752381,31.8447619 C38.6012698,28.3879365 39.8644444,24.4955556 39.8644444,20.1669841 C39.8634921,16.564127 38.9749206,13.2409524 37.1993651,10.1974603 L37.1993651,10.1974603 Z" id="Shape"></path>
                </g>
            </g>
        </g>
    </g>
</svg>