<?xml version="1.0" encoding="UTF-8" standalone="no"?>
<svg width="40px" height="40px" viewBox="0 0 40 40" version="1.1" xmlns="http://www.w3.org/2000/svg" xmlns:xlink="http://www.w3.org/1999/xlink" xmlns:sketch="http://www.bohemiancoding.com/sketch/ns">
    <!-- Generator: Sketch 3.3.2 (12043) - http://www.bohemiancoding.com/sketch -->
    <title>icon/twitter</title>
    <desc>Created with Sketch.</desc>
    <defs></defs>
    <g id="Top" stroke="none" stroke-width="1" fill="none" fill-rule="evenodd" sketch:type="MSPage">
        <g id="Desktop-HD" sketch:type="MSArtboardGroup" transform="translate(-753.000000, -435.000000)">
            <g id="Links" sketch:type="MSLayerGroup" transform="translate(700.000000, 435.000000)">
                <g id="icon/twitter" transform="translate(53.000000, 0.000000)" sketch:type="MSShapeGroup">
                    <circle id="Oval-3" fill="#FFFFFF" cx="20" cy="20" r="20"></circle>
                    <path d="M32.6524923,13.6444923 C31.72,14.0456615 30.7871385,14.2961846 29.8550154,14.3968 C30.9078769,13.7650462 31.6199385,12.8726154 31.9910154,11.7195077 C31.0280615,12.2908923 30.0003077,12.6819077 28.9073846,12.8925538 C27.9446154,11.8697846 26.7616,11.3582154 25.3576,11.3582154 C24.0139692,11.3582154 22.8684308,11.8319385 21.9206154,12.7795692 C20.9729846,13.7272 20.4992615,14.8727385 20.4992615,16.2163692 C20.4992615,16.5772923 20.5393231,16.9483692 20.6196308,17.3294154 C18.6340923,17.2291692 16.7715077,16.7303385 15.0316923,15.8329231 C13.2918769,14.9353231 11.8153231,13.7395692 10.6020308,12.2454769 C10.1608,12.9974154 9.94018462,13.8147077 9.94018462,14.6971692 C9.94018462,15.5294154 10.1356923,16.3016615 10.5268923,17.0135385 C10.9179077,17.7254154 11.4444308,18.3019692 12.1062769,18.7432 C11.3240615,18.7131077 10.5920615,18.5074462 9.91027692,18.1264 L9.91027692,18.1865846 C9.91027692,19.3598154 10.2787692,20.3899692 11.0157538,21.2776 C11.7527385,22.1652308 12.6828308,22.7240615 13.8058462,22.9546462 C13.3847385,23.0648615 12.9584615,23.1200615 12.5273846,23.1200615 C12.2465846,23.1200615 11.9406769,23.0949538 11.6098462,23.0451077 C11.9207385,24.0176615 12.4923077,24.8172308 13.3245538,25.444 C14.1568,26.0709538 15.0994462,26.3940308 16.1523077,26.4143385 C14.3875692,27.7978462 12.3771077,28.4897846 10.1209231,28.4897846 C9.68966154,28.4897846 9.29864615,28.4700308 8.94769231,28.4297846 C11.2038769,29.8836308 13.6906462,30.6104615 16.4081846,30.6104615 C18.1328615,30.6104615 19.7523077,30.3374154 21.2661538,29.7909538 C22.7805538,29.2444923 24.0739692,28.5124923 25.1469538,27.5947692 C26.2197538,26.6774154 27.1448615,25.6219692 27.9219077,24.4286154 C28.6989538,23.2354462 29.2779077,21.9896615 29.6591385,20.6910769 C30.0401846,19.3923077 30.2307077,18.0915077 30.2307077,16.7877538 C30.2307077,16.5069538 30.2257231,16.2964923 30.2155692,16.156 C31.1683692,15.4644308 31.9806769,14.6270154 32.6524923,13.6444923 L32.6524923,13.6444923 Z" id="Shape" fill="#1B1B1B"></path>
                </g>
            </g>
        </g>
    </g>
</svg>